# xmcd CD database file
#
# Track frame offsets:
#	150
#	19059
#	36571
#	62488
#	82873
#	93612
#	116102
#	139354
#	158632
#	175341
#	186363
#	207766
#	235018
#	254303
#	272026
#	291638
#	312758
#
# Disc length: 4374 seconds
#
# Revision: 0
# Processed by: cddbd v1.5.1PL2 Copyright (c) Steve Scherf et al.
# Submitted via: CDex 1.51
#
DISCID=f7111411
DTITLE=Dixie Chicks - Home
DYEAR=2003
DGENRE=Country
TTITLE0=Long Time Gone
TTITLE1=Landslide
TTITLE2=Travelin' Soldier
TTITLE3=Truth No.2
TTITLE4=White Trash Wedding
TTITLE5=A home
TTITLE6=More love
TTITLE7=I Believe in love
TTITLE8=Tortured Tangled Hearts
TTITLE9=Lil' jack slade
TTITLE10=Godspeed (sweet dreams)
TTITLE11=Top Of The World
TTITLE12=Smilling Face
TTITLE13=Our Song
TTITLE14=Why
TTITLE15=Pretty Boy - mandarin version
TTITLE16=Don't Say You Love Me
EXTD=YEAR: 2003
EXTT0=
EXTT1=
EXTT2=
EXTT3=
EXTT4=
EXTT5=
EXTT6=
EXTT7=
EXTT8=
EXTT9=
EXTT10=
EXTT11=
EXTT12=
EXTT13=
EXTT14=
EXTT15=
EXTT16=
PLAYORDER=
